<?xml version="1.0" encoding="UTF-8" standalone="no"?>
<!-- Created with Inkscape (http://www.inkscape.org/) -->

<svg
   width="62.576382mm"
   height="62.506165mm"
   viewBox="0 0 62.576381 62.506165"
   version="1.1"
   id="svg5"
   inkscape:version="1.1 (c68e22c387, 2021-05-23)"
   sodipodi:docname="externallink.svg"
   xmlns:inkscape="http://www.inkscape.org/namespaces/inkscape"
   xmlns:sodipodi="http://sodipodi.sourceforge.net/DTD/sodipodi-0.dtd"
   xmlns="http://www.w3.org/2000/svg"
   xmlns:svg="http://www.w3.org/2000/svg">
  <sodipodi:namedview
     id="namedview7"
     pagecolor="#ffffff"
     bordercolor="#666666"
     borderopacity="1.0"
     inkscape:pageshadow="2"
     inkscape:pageopacity="0.0"
     inkscape:pagecheckerboard="0"
     inkscape:document-units="mm"
     showgrid="false"
     fit-margin-top="0"
     fit-margin-left="0"
     fit-margin-right="0"
     fit-margin-bottom="0"
     inkscape:zoom="1.8101934"
     inkscape:cx="56.347572"
     inkscape:cy="109.93301"
     inkscape:window-width="1600"
     inkscape:window-height="847"
     inkscape:window-x="-8"
     inkscape:window-y="-8"
     inkscape:window-maximized="1"
     inkscape:current-layer="layer1" />
  <defs
     id="defs2" />
  <g
     inkscape:label="图层 1"
     inkscape:groupmode="layer"
     id="layer1"
     transform="translate(-93.183549,-38.513611)">
    <path
       id="path822"
       style="fill:#ffffff;stroke-width:0.264583"
       sodipodi:type="inkscape:offset"
       inkscape:radius="2.0670571"
       inkscape:original="M 134.15234 40.591797 L 132.55469 40.599609 C 131.24372 40.709304 129.80263 40.440072 128.59766 41.074219 C 126.9688 41.955801 126.53496 44.346889 127.7832 45.728516 C 128.33272 46.51327 129.28384 46.757308 130.19531 46.716797 C 134.0008 46.854524 137.82079 46.653663 141.61914 46.914062 C 142.50043 46.933732 142.63557 47.20813 141.92773 47.769531 C 135.51352 54.468166 128.77581 60.832674 122.45312 67.609375 C 121.8756 68.345904 121.8965 69.413628 122.00781 70.304688 C 122.55979 71.653753 124.09452 72.708382 125.58203 72.279297 C 126.90353 72.037698 127.63275 70.777868 128.60547 69.978516 C 134.6045 64.165962 140.42599 58.122804 146.45898 52.326172 C 147.01284 51.640131 147.31201 51.700673 147.32422 52.603516 C 147.55774 55.842969 147.42985 59.105322 147.48438 62.353516 C 147.56987 63.452772 147.35209 64.655115 147.82422 65.679688 C 148.782 67.331917 151.30882 67.730857 152.64453 66.310547 C 153.78617 65.283903 153.54714 63.625478 153.63867 62.248047 C 153.69607 56.570847 153.73553 50.8913 153.61133 45.214844 C 153.51763 44.108818 153.62395 42.869126 153.00586 41.818359 C 152.45809 41.077882 151.56453 40.729984 150.6582 40.773438 C 145.16025 40.567915 139.65362 40.635181 134.15234 40.591797 z M 132.95898 51.666016 C 123.80664 51.666178 114.65429 51.662314 105.50195 51.677734 C 102.64016 51.733204 99.764267 51.619374 96.914062 51.916016 C 96.153975 52.052059 95.55126 52.676063 95.542969 53.466797 C 95.142495 57.028059 95.293343 60.625321 95.25 64.203125 C 95.2653 75.286753 95.317086 86.369527 95.347656 97.453125 C 95.958644 98.066033 96.565749 98.997931 97.556641 98.828125 C 110.91863 99.056589 124.28322 98.901794 137.64648 98.902344 C 138.784 98.899744 139.92108 98.897131 141.05859 98.894531 C 141.53917 98.300314 142.20917 97.779678 142.57617 97.140625 L 142.57617 61.285156 C 140.81177 63.042884 139.04841 64.801669 137.28516 66.560547 L 137.28516 93.734375 L 100.50781 93.734375 L 100.50781 56.957031 L 127.68164 56.957031 C 129.44075 55.193354 131.19986 53.429677 132.95898 51.666016 z "
       d="m 130.42578,38.521484 c -0.82122,0.034 -1.78131,0.191273 -2.79101,0.722657 a 2.0672638,2.0672638 0 0 0 -0.0215,0.01172 c -2.82307,1.527919 -3.51037,5.280893 -1.43555,7.72461 1.08273,1.455375 2.79569,1.859169 4.10938,1.800781 l -0.16602,0.002 c 2.69256,0.09745 5.22665,0.101317 7.78516,0.132813 -0.99781,1.018994 -2.00512,2.059179 -3.01367,3.072265 a 2.0672638,2.0672638 0 0 0 -1.9336,-2.388672 c -9.15173,1.62e-4 -18.30569,-0.0037 -27.46093,0.01172 a 2.0672638,2.0672638 0 0 0 -0.0371,0 c -2.78018,0.05389 -5.714968,-0.06905 -8.761721,0.248047 a 2.0672638,2.0672638 0 0 0 -0.148438,0.02148 c -1.647153,0.294813 -3.040168,1.727902 -3.068359,3.548829 -0.39662,3.701821 -0.257142,7.307021 -0.298828,10.748046 a 2.0672638,2.0672638 0 0 0 0,0.02734 c 0.01531,11.088165 0.06709,22.172946 0.09766,33.253906 a 2.0672638,2.0672638 0 0 0 0.601562,1.453125 c 0.177363,0.177921 0.51737,0.629732 1.117188,1.121091 0.599818,0.49136 1.721068,1.03514 2.90625,0.83203 l -0.384766,0.0293 c 13.401506,0.22914 26.777756,0.0737 40.124996,0.0742 a 2.0672638,2.0672638 0 0 0 0.004,0 c 1.13754,-0.003 2.27462,-0.005 3.41211,-0.008 a 2.0672638,2.0672638 0 0 0 1.60352,-0.76563 c 0.26111,-0.322851 1.03651,-0.864634 1.70312,-2.025388 a 2.0672638,2.0672638 0 0 0 0.27344,-1.029297 V 61.285156 a 2.0672638,2.0672638 0 0 0 -2.65039,-1.636718 c 1.10423,-1.099058 2.21813,-2.203663 3.32812,-3.291016 0.0233,1.992965 0.0627,3.949853 0.0977,6.03125 a 2.0672638,2.0672638 0 0 0 0.006,0.125 c 0.0554,0.712537 -0.30705,2.228998 0.52344,4.03125 a 2.0672638,2.0672638 0 0 0 0.0879,0.171875 c 1.66244,2.867823 5.67904,3.488517 8.04687,1.052734 0.97926,-0.923882 1.37677,-2.139494 1.50195,-3.08789 0.12836,-0.972462 0.083,-1.781702 0.11719,-2.296875 a 2.0672638,2.0672638 0 0 0 0.004,-0.115235 c 0.0574,-5.681559 0.0977,-11.383435 -0.0274,-17.099609 a 2.0672638,2.0672638 0 0 0 -0.006,-0.128906 c -0.0716,-0.845515 0.14608,-2.519021 -0.88477,-4.271485 a 2.0672638,2.0672638 0 0 0 -0.11914,-0.179687 c -1.00286,-1.355669 -2.61098,-1.9527 -4.10938,-1.88086 l 0.17774,-0.002 c -5.56626,-0.208076 -11.09481,-0.138475 -16.56836,-0.18164 a 2.0672638,2.0672638 0 0 0 -0.0254,0 l -1.59766,0.0078 a 2.0672638,2.0672638 0 0 0 -0.16211,0.0059 c -0.45274,0.03788 -1.1358,-0.05158 -1.95703,-0.01758 z m -2.23242,20.289063 c -2.43651,2.453217 -4.87767,4.843899 -7.25195,7.388672 a 2.0672638,2.0672638 0 0 0 -0.11524,0.134765 c -1.191,1.518925 -1.00168,3.165547 -0.86914,4.226563 a 2.0672638,2.0672638 0 0 0 0.13672,0.527344 c 0.9059,2.214057 3.285,3.897265 5.96094,3.185547 1.15963,-0.244205 2.01718,-0.890344 2.59179,-1.435547 0.59367,-0.563281 1.00092,-1.039371 1.27149,-1.261719 a 2.0672638,2.0672638 0 0 0 0.125,-0.113281 c 1.80106,-1.745072 3.55483,-3.500392 5.32812,-5.267579 a 2.0672638,2.0672638 0 0 0 -0.15234,0.365235 V 91.667969 H 102.57422 V 59.023438 h 25.10742 a 2.0672638,2.0672638 0 0 0 0.51172,-0.212891 z"
       transform="translate(54.363607,69.453125)" />
    <path
       id="path836"
       style="fill:#ffffff;stroke:#000000;stroke-width:0.264583"
       sodipodi:type="inkscape:offset"
       inkscape:radius="0.73102295"
       inkscape:original="M 140.63867 40.085938 C 130.40906 40.021568 129.4039 40.056201 128.57227 40.484375 C 126.04361 41.786278 125.80191 45.058191 128.10938 46.751953 C 128.8153 47.270128 129.19913 47.300781 135.18555 47.300781 C 138.66743 47.300781 141.51737 47.360084 141.51758 47.433594 C 141.5178 47.507103 137.16478 51.913846 131.84375 57.224609 C 126.52272 62.535372 121.99783 67.2008 121.78906 67.59375 C 121.5803 67.98671 121.41016 68.851415 121.41016 69.515625 C 121.41016 70.510445 121.56162 70.889286 122.27344 71.666016 C 122.78727 72.226706 123.51044 72.689321 124.05859 72.806641 C 124.99497 73.007041 125.95995 72.850539 126.86328 72.349609 C 127.13823 72.197139 131.70682 67.718973 137.01758 62.398438 C 142.32835 57.077901 146.73509 52.724536 146.80859 52.724609 C 146.88214 52.724681 146.94141 55.572792 146.94141 59.054688 C 146.94141 65.041072 146.97206 65.426675 147.49023 66.132812 C 149.18366 68.440536 152.46485 68.197926 153.75391 65.669922 C 154.17202 64.849879 154.2168 63.721383 154.2168 53.916016 C 154.2168 41.967229 154.21201 41.928495 152.54492 40.705078 C 151.82141 40.174121 151.45168 40.153978 140.63867 40.085938 z M 115.625 51.136719 C 98.560487 51.136719 96.954666 51.173941 96.253906 51.587891 C 94.610806 52.558495 94.670447 51.585847 94.748047 75.705078 L 94.818359 97.662109 L 95.480469 98.373047 C 95.844269 98.764447 96.378882 99.183018 96.669922 99.304688 C 96.960972 99.426387 107.12026 99.503009 119.24609 99.474609 L 141.29297 99.423828 L 142.19922 98.435547 L 143.10547 97.447266 L 143.10547 78.728516 L 143.10547 60.009766 L 139.92969 63.175781 L 136.75586 66.341797 L 136.75586 79.773438 L 136.75586 93.205078 L 118.89648 93.205078 L 101.03711 93.205078 L 101.03711 75.345703 L 101.03711 57.486328 L 114.46875 57.486328 L 127.90039 57.486328 L 131.06641 54.3125 L 134.23438 51.136719 L 115.625 51.136719 z "
       d="m 140.64258,39.355469 c -5.11578,-0.03219 -7.92207,-0.04145 -9.58594,0.01367 -1.66387,0.05513 -2.30311,0.19956 -2.81836,0.464843 -1.47749,0.760699 -2.33317,2.145024 -2.43945,3.583985 -0.10628,1.43896 0.53435,2.936876 1.8789,3.923828 0.39837,0.292417 0.941,0.530318 1.9336,0.607422 0.9926,0.0771 2.57976,0.08203 5.57422,0.08203 1.73679,0 3.31704,0.01521 4.45703,0.03906 0.10801,0.0023 0.154,0.0054 0.2539,0.0078 -0.46825,0.480452 -1.00537,1.029628 -1.74023,1.773437 -1.75156,1.772903 -4.16862,4.201095 -6.82813,6.855469 -2.66293,2.657801 -5.12668,5.153672 -6.95312,7.03711 -0.91322,0.941719 -1.66652,1.730707 -2.20898,2.3125 -0.27123,0.290896 -0.48978,0.529652 -0.65235,0.714843 -0.16256,0.185191 -0.22892,0.210927 -0.37109,0.478516 -0.34001,0.640015 -0.46289,1.476579 -0.46289,2.265625 0,1.069018 0.29777,1.818593 1.05469,2.644531 0.60933,0.664907 1.36781,1.189237 2.17187,1.361328 1.11304,0.238209 2.27255,0.04349 3.3125,-0.533203 0.16128,-0.08944 0.15812,-0.108506 0.21875,-0.160156 0.0606,-0.05165 0.1324,-0.114412 0.2168,-0.191406 0.16879,-0.153989 0.39277,-0.36463 0.66992,-0.628907 0.5543,-0.528552 1.31865,-1.270619 2.24023,-2.173828 1.84317,-1.806416 4.31373,-4.258052 6.97071,-6.919922 2.65439,-2.659272 5.08255,-5.076511 6.85546,-6.828124 0.74382,-0.734878 1.29299,-1.271939 1.77344,-1.740235 0.002,0.09986 0.006,0.145935 0.008,0.253906 0.0238,1.139504 0.0391,2.718278 0.0391,4.455079 0,2.994439 0.005,4.583147 0.082,5.576171 0.0771,0.993024 0.31485,1.534899 0.60742,1.933594 0.98718,1.345273 2.48822,1.985307 3.92773,1.878906 1.43952,-0.1064 2.82192,-0.962219 3.57618,-2.441406 0.26589,-0.521503 0.40414,-1.171102 0.46875,-2.810547 0.0646,-1.639445 0.0742,-4.371594 0.0742,-9.27539 0,-5.974492 0.007,-8.95392 -0.2168,-10.71875 -0.11167,-0.882415 -0.28877,-1.498629 -0.60742,-1.990235 -0.31865,-0.491606 -0.72837,-0.784953 -1.14649,-1.091797 -0.20304,-0.149005 -0.50328,-0.329742 -0.89648,-0.429687 -0.3932,-0.09994 -0.87923,-0.152387 -1.66602,-0.193359 -1.57357,-0.08195 -4.36458,-0.102697 -9.77148,-0.136719 z M 115.625,50.40625 c -8.53279,0 -13.19928,0.0088 -15.839844,0.07031 -1.320284,0.03074 -2.131288,0.07314 -2.695312,0.140626 -0.564024,0.06748 -0.930705,0.178566 -1.207032,0.341796 -0.366408,0.216443 -0.889229,0.45929 -1.214843,1.072266 -0.325615,0.612976 -0.448556,1.408987 -0.541016,2.888672 -0.18492,2.959369 -0.148173,8.728128 -0.109375,20.787109 l 0.07031,21.957031 a 0.73109606,0.73109606 0 0 0 0.195312,0.496094 l 0.662109,0.710938 c 0.429999,0.462621 0.895777,0.878503 1.44336,1.107422 0.180504,0.07547 0.192345,0.05592 0.242187,0.0625 0.04984,0.007 0.09587,0.0114 0.150391,0.0156 0.109035,0.008 0.244535,0.0144 0.414062,0.0215 0.339055,0.0141 0.810062,0.0271 1.404297,0.0391 1.188471,0.024 2.866321,0.0451 4.914061,0.0605 4.0955,0.0309 9.66944,0.0416 15.73438,0.0273 l 22.04687,-0.0508 a 0.73109606,0.73109606 0 0 0 0.53711,-0.236331 l 0.90625,-0.988281 0.90625,-0.988282 a 0.73109606,0.73109606 0 0 0 0.19141,-0.49414 v -18.71875 -18.71875 a 0.73109606,0.73109606 0 0 0 -1.2461,-0.517578 l -3.17578,3.166015 -3.17383,3.166016 a 0.73109606,0.73109606 0 0 0 -0.21484,0.517578 v 13.431641 12.701171 h -17.12891 -17.1289 V 75.345703 58.216797 h 12.70117 13.43164 a 0.73109606,0.73109606 0 0 0 0.51758,-0.214844 l 3.16601,-3.173828 3.16797,-3.175781 a 0.73109606,0.73109606 0 0 0 -0.51757,-1.246094 z" />
  </g>
</svg>
