<?xml version="1.0" encoding="UTF-8" standalone="no"?>
<!-- Generated by IcoMoon.io -->

<svg
   version="1.1"
   width="512"
   height="512"
   viewBox="0 0 512 512"
   id="svg9"
   sodipodi:docname="externallink.svg"
   inkscape:version="1.2.1 (9c6d41e410, 2022-07-14)"
   xmlns:inkscape="http://www.inkscape.org/namespaces/inkscape"
   xmlns:sodipodi="http://sodipodi.sourceforge.net/DTD/sodipodi-0.dtd"
   xmlns="http://www.w3.org/2000/svg"
   xmlns:svg="http://www.w3.org/2000/svg">
  <defs
     id="defs13" />
  <sodipodi:namedview
     id="namedview11"
     pagecolor="#ffffff"
     bordercolor="#000000"
     borderopacity="0.25"
     inkscape:showpageshadow="2"
     inkscape:pageopacity="0.0"
     inkscape:pagecheckerboard="0"
     inkscape:deskcolor="#d1d1d1"
     showgrid="false"
     inkscape:zoom="0.42105927"
     inkscape:cx="-13.062294"
     inkscape:cy="389.49386"
     inkscape:window-width="1920"
     inkscape:window-height="1007"
     inkscape:window-x="0"
     inkscape:window-y="0"
     inkscape:window-maximized="1"
     inkscape:current-layer="svg9" />
  <title
     id="title2" />
  <g
     id="icomoon-ignore" />
  <path
     d="m 227.25105,305.5812 c -5.33204,0 -10.66249,-2.03346 -14.73022,-6.1012 -38.1111,-38.1119 -38.1111,-100.12466 0,-138.23656 l 76.91604,-76.916044 c 18.46306,-18.462254 43.00889,-28.629594 69.11788,-28.629594 26.10899,0 50.65562,10.16734 69.11868,28.628793 38.1103,38.111895 38.1103,100.124655 0,138.236555 l -35.15945,35.15945 c -8.13547,8.13547 -21.32417,8.13547 -29.46044,0 -8.13468,-8.13467 -8.13468,-21.32497 0,-29.46045 l 35.15944,-35.15944 c 21.86659,-21.8674 21.86659,-57.44828 0,-79.31567 -10.59278,-10.59278 -24.67723,-16.426381 -39.65823,-16.426381 -14.981,0 -29.06465,5.833601 -39.65823,16.427181 l -76.91605,76.91525 c -21.86739,21.86739 -21.86739,57.44907 0,79.31646 8.13548,8.13467 8.13468,21.32497 0,29.46045 -4.06613,4.06693 -9.39898,6.1012 -14.72942,6.1012 z"
     id="path5"
     style="fill:#ffffff;stroke-width:0.801209" />
  <path
     d="m 153.4453,456.3022 c -26.10979,0 -50.65643,-10.16734 -69.117879,-28.62879 -38.111099,-38.1119 -38.111099,-100.12466 0,-138.23656 L 119.48606,254.2782 c 8.13548,-8.13467 21.32578,-8.13467 29.46045,0 8.13548,8.13468 8.13548,21.32498 0,29.46045 l -35.15864,35.15864 c -21.867394,21.8674 -21.867394,57.44908 0,79.31647 10.59198,10.59198 24.67643,16.42558 39.65743,16.42558 14.981,0 29.06465,-5.8336 39.65903,-16.42718 l 76.91605,-76.91525 c 21.86659,-21.86739 21.86659,-57.44907 0,-79.31646 -8.13548,-8.13548 -8.13468,-21.32497 0,-29.46045 8.13467,-8.13467 21.32497,-8.13467 29.46044,8e-4 38.1103,38.1111 38.1103,100.12386 8.1e-4,138.23576 l -76.91685,76.91604 c -18.46386,18.46306 -43.01049,28.6296 -69.11948,28.6296 z"
     id="path7"
     style="fill:#ffffff;stroke-width:0.801209" />
</svg>
