<?xml version="1.0" encoding="UTF-8" standalone="no"?>
<!-- Generated by IcoMoon.io -->

<svg
   version="1.1"
   width="512"
   height="512"
   viewBox="0 0 512 512"
   id="svg7"
   sodipodi:docname="mail-142.svg"
   inkscape:version="1.2.1 (9c6d41e410, 2022-07-14)"
   xmlns:inkscape="http://www.inkscape.org/namespaces/inkscape"
   xmlns:sodipodi="http://sodipodi.sourceforge.net/DTD/sodipodi-0.dtd"
   xmlns="http://www.w3.org/2000/svg"
   xmlns:svg="http://www.w3.org/2000/svg">
  <defs
     id="defs11" />
  <sodipodi:namedview
     id="namedview9"
     pagecolor="#ffffff"
     bordercolor="#000000"
     borderopacity="0.25"
     inkscape:showpageshadow="2"
     inkscape:pageopacity="0.0"
     inkscape:pagecheckerboard="0"
     inkscape:deskcolor="#d1d1d1"
     showgrid="false"
     inkscape:zoom="0.67530931"
     inkscape:cx="-141.41668"
     inkscape:cy="379.08555"
     inkscape:window-width="1920"
     inkscape:window-height="1007"
     inkscape:window-x="0"
     inkscape:window-y="0"
     inkscape:window-maximized="1"
     inkscape:current-layer="svg7" />
  <title
     id="title2" />
  <g
     id="icomoon-ignore" />
  <path
     d="M 426.655,36.19756 H 85.345 C 38.405,36.19756 0,69.161057 0,109.46132 v 293.06534 c 0,40.30112 38.405,73.27578 85.345,73.27578 h 341.311 c 46.969,0 85.344,-32.97466 85.344,-73.27578 V 109.46132 C 512,69.161057 473.625,36.19756 426.655,36.19756 Z M 85.007729,85.007729 H 426.99227 c 6.10362,0 12.02557,1.310495 17.46259,3.781868 L 256,308.6536 67.545143,88.788261 c 5.43702,-2.468701 11.358963,-3.780532 17.462586,-3.780532 z M 42.259661,384.2442 V 127.7558 c 0,-0.89504 0.0374,-1.78474 0.09351,-2.67176 L 167.70119,271.32251 43.733134,395.29191 C 42.76863,391.72645 42.259661,388.02073 42.259661,384.2442 Z M 426.99227,426.99227 H 85.007729 c -3.776525,0 -7.482248,-0.50897 -11.047704,-1.47347 L 195.60366,303.87516 256,374.34001 316.39768,303.8765 438.03997,425.52013 c -3.56679,0.96317 -7.27117,1.47214 -11.0477,1.47214 z m 42.74807,-42.74807 c 0,3.77653 -0.50897,7.48092 -1.47347,11.04771 L 344.29881,271.32385 469.64683,125.08404 c 0.0561,0.88702 0.0935,1.77672 0.0935,2.67176 z"
     id="path5"
     style="fill:#ffffff"
     sodipodi:nodetypes="ssssssssssscccssscccssscccccsscccss" />
</svg>
